<svg version="1.1" xmlns="http://www.w3.org/2000/svg" viewBox="0 0 800 800" xmlns:xlink="http://www.w3.org/1999/xlink" enable-background="new 0 0 800 800">
  <g fill="#d8d8d8">
    <path d="m362.505,474.457h-266.312v-11.62c0-2.777-2.247-5.025-5.025-5.025h-12.561c-2.777,0-5.025,2.247-5.025,5.025v11.62h-15.913c-5.55,0-10.049,4.5-10.049,10.049v118.283c0,5.55 4.5,10.049 10.049,10.049h52.18l-25.864,150.752c-.937,5.466 2.738,10.663 8.209,11.605 5.442,.893 10.658-2.738 11.605-8.209l25.806-150.409 .75,.13 .006,.002c.002,.001 .004-.001 .004-.001l85.358,14.82-22.921,132.042c-.947,5.466 2.714,10.668 8.185,11.62 .579,.098 1.158,.147 1.727,.147 4.799,0 9.044-3.445 9.892-8.332l24.638-141.944c.947-5.466-2.714-10.668-8.185-11.62l-.775-.134 .082-.469h134.138c5.55,0 10.05-4.5 10.05-10.049v-118.283c-0-5.549-4.499-10.049-10.049-10.049zm-278.873-6.595h2.512v6.595h-2.512v-6.595zm268.823,26.694v18.843h-284.737v-18.843h284.737zm-137.812,79.812l-6.162,35.502-64.782-11.246 6.162-35.503c1.556-8.965 5.687-11.443 9.524-12.689 5.589-1.816 14.083-1.693 25.982,.373 11.895,2.066 19.937,4.814 24.584,8.401 3.195,2.467 6.252,6.197 4.692,15.162zm17.212,18.371l2.593-14.937c3.175-18.274-4.887-28.848-12.209-34.506-7.503-5.795-17.817-9.588-33.436-12.297-15.624-2.709-26.606-2.606-35.62,.314-8.803,2.856-19.957,10.094-23.127,28.372l-5.737,33.053h-56.601v-69.291h284.737v69.291h-120.6z"/>
    <path d="m639.121,469.471c4.593,0 9.161-.653 13.578-1.943 27.69-8.077 43.059-39.187 34.265-69.345l-9.485-32.518c-7.213-24.721-28.843-41.989-52.603-41.989-4.581,0-9.137,.652-13.541,1.935-.012,.004-.024-.001-.037,.003-.017,.005-.028,.018-.045,.023-27.659,8.098-43.009,39.186-34.221,69.327l9.49,32.518c7.214,24.727 28.844,41.989 52.599,41.989zm-30.595-126.437l8.322,28.524c.962,3.293 3.97,5.427 7.233,5.427 .702,0 1.413-.098 2.115-.299 3.999-1.168 6.291-5.353 5.128-9.348l-8.303-28.456c.62-.035 1.233-.133 1.855-.133 17.101,0 32.784,12.802 38.127,31.135l9.485,32.519c6.472,22.18-4.303,44.904-24.01,50.655-3.047,.888-6.193,1.34-9.358,1.34-17.101,0-32.779-12.802-38.127-31.135l-9.485-32.518c-5.658-19.391 1.869-39.193 17.018-47.711z"/>
    <path d="m755.591,488.221h-245.109v-11.62c0-2.777-2.247-5.025-5.025-5.025h-12.562c-2.777,0-5.025,2.247-5.025,5.025v11.62h-20.619c-5.55,0-10.049,4.5-10.049,10.049v182.167c0,5.55 4.5,10.049 10.049,10.049h112.156l27.355,78.997c1.438,4.156 5.329,6.767 9.495,6.767 1.089,0 2.198-.182 3.288-.559 5.246-1.816 8.023-7.537 6.207-12.783l-30.727-88.738 82.849-28.691 46.484,124.24c1.948,5.206 7.748,7.836 12.935,5.888 5.196-1.943 7.836-7.733 5.888-12.935l-27.008-72.186h39.418c5.55,0 10.049-4.5 10.049-10.049v-182.167c-0-5.549-4.5-10.049-10.049-10.049zm-257.671-6.595h2.512v6.595h-2.512v-6.595zm-20.619,26.694h41.871v162.067h-41.871v-162.067zm109.406,108.071c-3.003-8.587-.599-12.763 2.144-15.717 3.039-3.269 8.115-6.383 15.365-9.437l-8.324,19.742c-1.619,3.837 .182,8.258 4.014,9.873 .957,.407 1.948,.594 2.925,.594 2.944,0 5.736-1.727 6.948-4.608l13.416-31.82c5.725-1.335 10.474-1.836 14.107-1.282 3.989,.599 8.469,2.37 11.472,10.957l12.351,35.319-62.137,21.518-12.281-35.139zm158.834,53.996h-36.888l-15.391-41.135c-1.909-5.108-7.557-7.763-12.699-5.972l-.446,.155-12.371-35.377c-7-20.039-21.677-24.907-35.482-24.55l17.415-41.307c1.619-3.837-.182-8.258-4.014-9.873-3.837-1.634-8.258,.177-9.873,4.014l-21.069,49.974c-3.902,1.073-7.239,2.232-9.624,3.065-14.966,5.231-24.515,10.663-30.968,17.611-6.296,6.777-12.518,18.529-6.394,36.032l12.262,35.081-1.045,.362c-4.959,1.716-7.572,6.923-6.324,11.919h-43.408v-162.066h216.319v162.067z"/>
    <path d="m499.177,604.428c8.312,0 15.074-6.762 15.074-15.074 0-8.312-6.762-15.074-15.074-15.074-8.312,0-15.074,6.762-15.074,15.074-.001,8.312 6.761,15.074 15.074,15.074zm0-20.099c2.772,0 5.025,2.252 5.025,5.025 0,2.772-2.252,5.025-5.025,5.025-2.772,0-5.025-2.252-5.025-5.025-0-2.773 2.252-5.025 5.025-5.025z"/>
    <path d="m492.582,536.177h13.19c2.777,0 5.025-2.247 5.025-5.025 0-2.777-2.247-5.025-5.025-5.025h-13.19c-2.777,0-5.025,2.247-5.025,5.025 0,2.777 2.247,5.025 5.025,5.025z"/>
    <path d="m492.582,555.226h13.19c2.777,0 5.025-2.247 5.025-5.025 0-2.777-2.247-5.025-5.025-5.025h-13.19c-2.777,0-5.025,2.247-5.025,5.025 0,2.777 2.247,5.025 5.025,5.025z"/>
    <path d="m505.772,623.482h-13.19c-2.777,0-5.025,2.247-5.025,5.025 0,2.777 2.247,5.025 5.025,5.025h13.19c2.777,0 5.025-2.247 5.025-5.025-.001-2.778-2.248-5.025-5.025-5.025z"/>
    <path d="m505.772,642.53h-13.19c-2.777,0-5.025,2.247-5.025,5.025 0,2.777 2.247,5.025 5.025,5.025h13.19c2.777,0 5.025-2.247 5.025-5.025-.001-2.777-2.248-5.025-5.025-5.025z"/>
    <path d="m773.665,69.47l-11.306-26.38c-1.58-3.695-5.216-6.09-9.235-6.09h-704.249c-4.019,0-7.655,2.395-9.235,6.09l-11.305,26.38c-1.016,2.37-1.084,5.039-.186,7.454l64.271,173.353c1.457,3.94 5.221,6.556 9.421,6.556h189.478v42.71c0,5.55 4.5,10.049 10.049,10.049h199.263c5.55,0 10.049-4.5 10.049-10.049v-42.71h189.478c4.2,0 7.964-2.615 9.422-6.556l64.271-173.354c.899-2.414 .83-5.083-.186-7.453zm-27.406,24.058h-690.518l-4.657-12.562h699.832l-4.657,12.562zm-43.092,116.232h-88.693l29.263-106.182h98.796l-39.366,106.182zm-604.334,0l-39.366-106.182h573.848l-29.263,106.182h-505.219zm647.667-152.661l3.766,8.793h-698.532l3.766-8.793h691zm-255.918,232.394h-179.164v-32.661h179.163v32.661zm-381.747-52.759l-6.275-16.924h596.882l-6.275,16.924h-584.332z"/>
    <path d="m101.792,112.621c-.716-1.997-2.61-3.332-4.73-3.332h-17.96c-1.634,0-3.17,.795-4.107,2.135-.942,1.335-1.173,3.047-.623,4.583l28.956,80.813c.716,1.997 2.611,3.332 4.73,3.332h17.96c.064-.005 .137-.01 .201,0 2.772,0 5.025-2.247 5.025-5.025 0-1.089-.348-2.095-.932-2.92l-28.52-79.586zm9.804,77.482l-25.354-70.763h7.282l25.354,70.763h-7.282z"/>
    <path d="m715.282,116.14h-62.809c-2.777,0-5.025,2.247-5.025,5.025s2.247,5.025 5.025,5.025h62.809c2.777,0 5.025-2.247 5.025-5.025s-2.248-5.025-5.025-5.025z"/>
    <path d="m694.555,151.647h-47.107c-2.777,0-5.025,2.247-5.025,5.025s2.247,5.025 5.025,5.025h47.107c2.777,0 5.025-2.247 5.025-5.025s-2.248-5.025-5.025-5.025z"/>
    <path d="m502.971,170.403v3.428c-162.502,23.918-264.659-34.695-286.376-48.802v-6.42h-14.874v14.873h6.637l8.871,36.921h-3.063v14.874h14.873v-14.874h-6.64l-8.451-35.172c23.146,14.426 97.668,54.385 213.235,54.385 23.562,0 48.916-1.784 75.788-5.668v1.329h14.874v-14.874h-14.874z"/>
    <path d="m255.582,351.046c-1.58-3.837-5.972-5.672-9.838-4.107l-11.417,4.691-2.798-6.811c-1.575-3.842-5.967-5.668-9.838-4.107l-54.232,22.273c-3.847,1.58-5.687,5.987-4.107,9.834l11.32,27.572c.76,1.85 2.223,3.322 4.068,4.092 .927,.388 1.919,.584 2.905,.584 .971,0 1.948-.187 2.866-.564l54.237-22.278c1.845-.76 3.317-2.223 4.088-4.068 .77-1.845 .78-3.921 .02-5.771l-2.798-6.81 11.419-4.692c3.845-1.584 5.685-5.986 4.105-9.838zm-69.831,36.646l-5.594-13.627 40.291-16.546 2.794,6.8c.002,.005 .001,.011 .001,.011 .005,.012 .01,.017 .013,.023l2.791,6.792-40.296,16.547z"/>
    <path d="m450.241,379.124c0-27.15-22.091-49.241-49.241-49.241s-49.241,22.091-49.241,49.241c0,27.15 22.091,49.241 49.241,49.241s49.241-22.091 49.241-49.241zm-49.241,34.167c-18.838,0-34.167-15.329-34.167-34.167 0-18.838 15.329-34.167 34.167-34.167 18.838,0 34.167,15.329 34.167,34.167 0,18.838-15.329,34.167-34.167,34.167z"/>
    <circle cx="401" cy="379.123" r="19.654"/>
  </g>
</svg>
